<svg width="39" height="31" viewBox="0 0 39 31" fill="none" xmlns="http://www.w3.org/2000/svg">
<path fill-rule="evenodd" clip-rule="evenodd" d="M14.4697 2.00344C14.4697 0.39308 12.6637 -0.556961 11.3367 0.355353L0.866943 7.55329C-0.28898 8.34799 -0.288981 10.0548 0.866942 10.8495L11.3367 18.0474C12.6637 18.9597 14.4697 18.0097 14.4697 16.3993V14.2014H21.4697C22.5743 14.2014 23.4697 13.3059 23.4697 12.2014V6.20138C23.4697 5.09681 22.5743 4.20138 21.4697 4.20138H14.4697V2.00344Z" fill="#02CD68"/>
<path fill-rule="evenodd" clip-rule="evenodd" d="M24.4697 14.2049C24.4697 12.5945 26.2758 11.6445 27.6028 12.5568L38.0725 19.7547C39.2284 20.5494 39.2284 22.2562 38.0725 23.0509L27.6028 30.2488C26.2758 31.1611 24.4697 30.2111 24.4697 28.6007V26.4028H17.4697C16.3652 26.4028 15.4697 25.5074 15.4697 24.4028V18.4028C15.4697 17.2982 16.3652 16.4028 17.4697 16.4028H24.4697V14.2049Z" fill="#75BCFF"/>
</svg>
