<svg width="35" height="35" viewBox="0 0 35 35" fill="none" xmlns="http://www.w3.org/2000/svg">
<path d="M3.31976 27.755L1.50851 24.6172C0.510889 22.3773 -0.00312847 19.9521 1.43251e-05 17.5C1.43251e-05 7.83475 7.83476 0 17.5 0C27.1653 0 35 7.83475 35 17.5C35 27.1652 27.1653 35 17.5 35C14.7315 35.0018 12.0022 34.3459 9.53682 33.0863C7.07147 31.8267 4.94061 29.9994 3.31976 27.755Z" fill="#66B686"/>
<path d="M12.0713 13.0469V23H9.67871L6.1582 16.8066V23H3.75879V13.0469H6.1582L9.67871 19.2402V13.0469H12.0713Z" fill="white"/>
<path d="M17.3883 13.0469V23H14.9889V13.0469H17.3883ZM21.2574 17.1895V19.0352H16.7047V17.1895H21.2574ZM21.6471 13.0469V14.8994H16.7047V13.0469H21.6471Z" fill="white"/>
<path d="M29.0012 13.0469V23H26.6018V13.0469H29.0012ZM31.9953 13.0469V14.8994H23.676V13.0469H31.9953Z" fill="white"/>
</svg>
